<svg width="17" height="16" viewBox="0 0 17 16" fill="none" xmlns="http://www.w3.org/2000/svg">
<g clip-path="url(#clip0_69_192)">
<path d="M8.40591 0.5C5.23091 0.5 2.53091 2.475 1.43091 5.25H15.3809C14.2809 2.475 11.5809 0.5 8.40591 0.5Z" fill="#42ADE2"/>
<path d="M8.40591 15.5C11.5809 15.5 14.2809 13.525 15.3809 10.75H1.43091C2.53091 13.525 5.23091 15.5 8.40591 15.5Z" fill="#83BF4F"/>
<path d="M15.906 8C15.906 7.225 15.781 6.45 15.556 5.75H1.25601C1.03101 6.45 0.906006 7.225 0.906006 8C0.906006 8.775 1.03101 9.55 1.25601 10.25H15.556C15.781 9.55 15.906 8.775 15.906 8Z" fill="white"/>
<path d="M15.3811 5.25C15.4061 5.325 15.4561 5.425 15.4811 5.5C15.5061 5.575 15.5311 5.675 15.5561 5.75" fill="#C94747"/>
<path d="M15.4811 5.5C15.4561 5.425 15.4061 5.325 15.3811 5.25H1.4311C1.4061 5.325 1.3561 5.425 1.3311 5.5C1.3061 5.575 1.2811 5.675 1.2561 5.75H15.5561C15.5311 5.675 15.5061 5.575 15.4811 5.5ZM1.3311 10.5C1.3561 10.575 1.4061 10.675 1.4311 10.75H15.3811C15.4061 10.675 15.4561 10.575 15.4811 10.5C15.5061 10.425 15.5311 10.325 15.5561 10.25H1.2561C1.2811 10.325 1.3061 10.425 1.3311 10.5Z" fill="#C94747"/>
<path d="M5.50601 4.325C4.90601 4.325 4.43101 3.85 4.43101 3.25C4.43101 2.65 4.90601 2.175 5.50601 2.175C5.65601 2.175 5.78101 2.2 5.90601 2.25C5.70601 2.1 5.43101 2 5.15601 2C4.45601 2 3.90601 2.55 3.90601 3.25C3.90601 3.95 4.45601 4.5 5.15601 4.5C5.43101 4.5 5.70601 4.4 5.90601 4.25C5.78101 4.3 5.65601 4.325 5.50601 4.325ZM6.58101 3.8L6.68101 4.075H6.95601L6.73101 4.225L6.80601 4.5L6.58101 4.325L6.35601 4.5L6.45601 4.225L6.23101 4.075H6.50601L6.58101 3.8ZM7.65601 3.8L7.73101 4.075H8.03101L7.80601 4.225L7.88101 4.5L7.65601 4.325L7.43101 4.5L7.50601 4.225L7.28101 4.075H7.55601L7.65601 3.8ZM8.73101 3.8L8.80601 4.075H9.08101L8.85601 4.225L8.95601 4.5L8.73101 4.325L8.48101 4.5L8.58101 4.225L8.35601 4.075H8.63101L8.73101 3.8ZM9.78101 3.8L9.88101 4.075H10.156L9.93101 4.225L10.006 4.5L9.78101 4.325L9.55601 4.5L9.63101 4.225L9.40601 4.075H9.70601L9.78101 3.8ZM10.856 3.8L10.931 4.075H11.231L10.981 4.225L11.081 4.5L10.856 4.325L10.631 4.5L10.706 4.225L10.481 4.075H10.756L10.856 3.8ZM7.65601 2.9L7.73101 3.175H8.03101L7.80601 3.325L7.88101 3.6L7.65601 3.425L7.43101 3.6L7.50601 3.325L7.28101 3.175H7.55601L7.65601 2.9ZM8.73101 2.9L8.80601 3.175H9.08101L8.85601 3.325L8.95601 3.6L8.73101 3.425L8.48101 3.6L8.58101 3.325L8.35601 3.175H8.63101L8.73101 2.9ZM9.78101 2.9L9.88101 3.175H10.156L9.93101 3.325L10.006 3.6L9.78101 3.425L9.55601 3.6L9.63101 3.325L9.40601 3.175H9.70601L9.78101 2.9ZM10.856 2.9L10.931 3.175H11.231L10.981 3.325L11.081 3.6L10.856 3.425L10.631 3.6L10.706 3.325L10.481 3.175H10.756L10.856 2.9ZM8.73101 2L8.80601 2.275H9.08101L8.85601 2.425L8.95601 2.7L8.73101 2.525L8.48101 2.7L8.58101 2.425L8.35601 2.275H8.63101L8.73101 2ZM9.78101 2L9.88101 2.275H10.156L9.93101 2.425L10.006 2.7L9.78101 2.525L9.55601 2.7L9.63101 2.425L9.40601 2.275H9.70601L9.78101 2ZM10.856 2L10.931 2.275H11.231L10.981 2.425L11.081 2.7L10.856 2.525L10.631 2.7L10.706 2.425L10.481 2.275H10.756L10.856 2Z" fill="white"/>
</g>
<defs>
<clipPath id="clip0_69_192">
<rect width="16" height="16" fill="white" transform="translate(0.406006)"/>
</clipPath>
</defs>
</svg>
