<svg width="17" height="16" viewBox="0 0 17 16" fill="none" xmlns="http://www.w3.org/2000/svg">
<g clip-path="url(#clip0_69_202)">
<path d="M6.31206 15.075V11.625L3.73706 13.525C4.46206 14.2 5.33706 14.725 6.31206 15.075ZM11.3121 15.075C12.2871 14.725 13.1621 14.2 13.8871 13.525L11.3121 11.6V15.075ZM1.73706 10.5C1.81206 10.75 1.91206 10.975 2.03706 11.225L3.01206 10.5H1.73706ZM14.6121 10.5L15.5871 11.225C15.6871 11 15.7871 10.75 15.8871 10.5H14.6121Z" fill="#2A5F9E"/>
<path d="M6.68691 9.5H1.46191C1.53691 9.85 1.63691 10.175 1.73691 10.5H3.01191L2.03691 11.225C2.23691 11.65 2.46191 12.025 2.73691 12.4L5.31191 10.5H6.31191V11L3.38691 13.15L3.73691 13.5L6.31191 11.625V15.075C6.63691 15.2 6.96191 15.275 7.31191 15.35V9.5H6.68691ZM16.1619 9.5H10.3119V15.35C10.6619 15.275 10.9869 15.175 11.3119 15.075V11.625L13.8869 13.5C14.2369 13.175 14.5369 12.825 14.8369 12.45L12.1619 10.5H13.8619L15.3869 11.625C15.4619 11.5 15.5369 11.35 15.5869 11.225L14.6119 10.5H15.8869C15.9869 10.175 16.0869 9.85 16.1619 9.5Z" fill="white"/>
<path d="M2.73706 12.4C2.93706 12.675 3.13706 12.925 3.36206 13.175L6.31206 11.025V10.525H5.31206L2.73706 12.4ZM12.1871 10.5L14.8621 12.45C14.9621 12.325 15.0371 12.2 15.1371 12.075C15.1621 12.05 15.1621 12.025 15.1871 12.025C15.2621 11.9 15.3621 11.75 15.4371 11.625L13.8621 10.5H12.1871Z" fill="#ED4C5C"/>
<path d="M11.3121 0.924805V4.3748L13.8871 2.4748C13.1621 1.7998 12.2871 1.2748 11.3121 0.924805ZM6.31206 0.924805C5.33706 1.2748 4.46206 1.7998 3.73706 2.4748L6.31206 4.3998V0.924805ZM15.8871 5.4998C15.8121 5.2498 15.7121 5.02481 15.5871 4.7748L14.6121 5.4998H15.8871ZM3.01206 5.4998L2.03706 4.7748C1.93706 5.02481 1.83706 5.2498 1.73706 5.4998H3.01206Z" fill="#2A5F9E"/>
<path d="M10.9369 6.4999H16.1369C16.0619 6.1499 15.9619 5.8249 15.8619 5.4999H14.5869L15.5619 4.7749C15.3619 4.3499 15.1369 3.9749 14.8619 3.5999L12.3119 5.4999H11.3119V4.9999L14.2369 2.8499L13.8869 2.4999L11.3119 4.3749V0.924902C10.9869 0.799902 10.6619 0.724902 10.3119 0.649902V6.4999H10.9369ZM1.46191 6.4999H7.31191V0.649902C6.96191 0.724902 6.63691 0.824902 6.31191 0.924902V4.3749L3.73691 2.4999C3.38691 2.8249 3.08691 3.1749 2.78691 3.5499L5.46191 5.4999H3.76191L2.23691 4.3749C2.16191 4.4999 2.08691 4.6499 2.03691 4.7749L3.01191 5.4999H1.73691C1.63691 5.8249 1.53691 6.1499 1.46191 6.4999Z" fill="white"/>
<path d="M14.8869 3.6002C14.6869 3.3252 14.4869 3.0752 14.2619 2.8252L11.3119 4.9752V5.4752H12.3119L14.8869 3.6002ZM5.43691 5.5002L2.78691 3.5502C2.68691 3.6752 2.61191 3.8002 2.51191 3.9252C2.48691 3.9502 2.48691 3.9752 2.46191 3.9752C2.38691 4.1002 2.28691 4.2502 2.21191 4.3752L3.73691 5.5002H5.43691Z" fill="#ED4C5C"/>
<path d="M16.162 6.5H10.312V0.65C9.83701 0.55 9.33701 0.5 8.81201 0.5C8.02451 0.5 7.78701 0.55 7.31201 0.65V6.5H1.46201C1.36201 6.975 1.31201 7.475 1.31201 8C1.31201 8.7875 1.36201 9.025 1.46201 9.5H7.31201V15.35C7.78701 15.45 8.28701 15.5 8.81201 15.5C9.59951 15.5 9.83701 15.45 10.312 15.35V9.5H16.162C16.262 9.025 16.312 8.525 16.312 8C16.312 7.2125 16.262 6.975 16.162 6.5Z" fill="#ED4C5C"/>
</g>
<defs>
<clipPath id="clip0_69_202">
<rect width="16" height="16" fill="white" transform="translate(0.812012)"/>
</clipPath>
</defs>
</svg>
